<?xml version="1.0" encoding="utf-8"?>
<!-- Generator: Adobe Illustrator 24.0.1, SVG Export Plug-In . SVG Version: 6.00 Build 0)  -->
<svg version="1.1"
	 id="Ebene_1" xmlns:cc="http://creativecommons.org/ns#" xmlns:dc="http://purl.org/dc/elements/1.1/" xmlns:rdf="http://www.w3.org/1999/02/22-rdf-syntax-ns#" xmlns:svg="http://www.w3.org/2000/svg"
	 xmlns="http://www.w3.org/2000/svg" xmlns:xlink="http://www.w3.org/1999/xlink" x="0px" y="0px" viewBox="0 0 20 15"
	 enable-background="new 0 0 20 15" xml:space="preserve">
<line fill="none" stroke="#000000" stroke-width="0.1" x1="1.155" y1="2.088997" x2="1.393" y2="2.088997"/>
<line fill="none" stroke="#000000" stroke-width="0.1" x1="1.907" y1="2.088997" x2="2.145" y2="2.088997"/>
<line fill="none" stroke="#000000" stroke-width="0.1" x1="2.659" y1="2.088997" x2="2.897" y2="2.088997"/>
<line fill="none" stroke="#000000" stroke-width="0.1" x1="3.411" y1="2.088997" x2="3.649" y2="2.088997"/>
<line fill="none" stroke="#000000" stroke-width="0.1" x1="4.163" y1="2.088997" x2="4.401" y2="2.088997"/>
<line fill="none" stroke="#000000" stroke-width="0.1" x1="4.915" y1="2.088997" x2="5.153" y2="2.088997"/>
<line fill="none" stroke="#000000" stroke-width="0.1" x1="5.667" y1="2.088997" x2="5.905" y2="2.088997"/>
<line fill="none" stroke="#000000" stroke-width="0.1" x1="6.419" y1="2.088997" x2="6.657" y2="2.088997"/>
<line fill="none" stroke="#000000" stroke-width="0.1" x1="6.657" y1="2.602997" x2="6.657" y2="2.840997"/>
<line fill="none" stroke="#000000" stroke-width="0.1" x1="6.657" y1="3.354997" x2="6.657" y2="3.592997"/>
<line fill="none" stroke="#000000" stroke-width="0.1" x1="6.657" y1="4.106997" x2="6.657" y2="4.344996"/>
<line fill="none" stroke="#000000" stroke-width="0.1" x1="6.657" y1="4.858997" x2="6.657" y2="5.096997"/>
<line fill="none" stroke="#000000" stroke-width="0.1" x1="6.657" y1="5.610997" x2="6.657" y2="5.848997"/>
<line fill="none" stroke="#000000" stroke-width="0.1" x1="6.657" y1="6.362997" x2="6.657" y2="6.600996"/>
<line fill="none" stroke="#000000" stroke-width="0.1" x1="6.657" y1="7.114996" x2="6.657" y2="7.352997"/>
<line fill="none" stroke="#000000" stroke-width="0.1" x1="6.143" y1="7.352997" x2="5.905" y2="7.352997"/>
<line fill="none" stroke="#000000" stroke-width="0.1" x1="5.391" y1="7.352997" x2="5.153" y2="7.352997"/>
<line fill="none" stroke="#000000" stroke-width="0.1" x1="4.639" y1="7.352997" x2="4.401" y2="7.352997"/>
<line fill="none" stroke="#000000" stroke-width="0.1" x1="3.887" y1="7.352997" x2="3.649" y2="7.352997"/>
<line fill="none" stroke="#000000" stroke-width="0.1" x1="3.135" y1="7.352997" x2="2.897" y2="7.352997"/>
<line fill="none" stroke="#000000" stroke-width="0.1" x1="2.383" y1="7.352997" x2="2.145" y2="7.352997"/>
<line fill="none" stroke="#000000" stroke-width="0.1" x1="1.631" y1="7.352997" x2="1.393" y2="7.352997"/>
<line fill="none" stroke="#000000" stroke-width="0.1" x1="1.393" y1="6.838997" x2="1.393" y2="6.600996"/>
<line fill="none" stroke="#000000" stroke-width="0.1" x1="1.393" y1="6.086997" x2="1.393" y2="5.848997"/>
<line fill="none" stroke="#000000" stroke-width="0.1" x1="1.393" y1="5.334997" x2="1.393" y2="5.096997"/>
<line fill="none" stroke="#000000" stroke-width="0.1" x1="1.393" y1="4.582997" x2="1.393" y2="4.344996"/>
<line fill="none" stroke="#000000" stroke-width="0.1" x1="1.393" y1="3.830997" x2="1.393" y2="3.592997"/>
<line fill="none" stroke="#000000" stroke-width="0.1" x1="1.393" y1="3.078997" x2="1.393" y2="2.840997"/>
<line fill="none" stroke="#000000" stroke-width="0.1" x1="1.907" y1="2.840997" x2="2.145" y2="2.840997"/>
<line fill="none" stroke="#000000" stroke-width="0.1" x1="2.659" y1="2.840997" x2="2.897" y2="2.840997"/>
<line fill="none" stroke="#000000" stroke-width="0.1" x1="3.411" y1="2.840997" x2="3.649" y2="2.840997"/>
<line fill="none" stroke="#000000" stroke-width="0.1" x1="4.163" y1="2.840997" x2="4.401" y2="2.840997"/>
<line fill="none" stroke="#000000" stroke-width="0.1" x1="4.915" y1="2.840997" x2="5.153" y2="2.840997"/>
<line fill="none" stroke="#000000" stroke-width="0.1" x1="5.667" y1="2.840997" x2="5.905" y2="2.840997"/>
<line fill="none" stroke="#000000" stroke-width="0.1" x1="5.905" y1="3.354997" x2="5.905" y2="3.592997"/>
<line fill="none" stroke="#000000" stroke-width="0.1" x1="5.905" y1="4.106997" x2="5.905" y2="4.344996"/>
<line fill="none" stroke="#000000" stroke-width="0.1" x1="5.905" y1="4.858997" x2="5.905" y2="5.096997"/>
<line fill="none" stroke="#000000" stroke-width="0.1" x1="5.905" y1="5.610997" x2="5.905" y2="5.848997"/>
<line fill="none" stroke="#000000" stroke-width="0.1" x1="5.905" y1="6.362997" x2="5.905" y2="6.600996"/>
<line fill="none" stroke="#000000" stroke-width="0.1" x1="5.391" y1="6.600996" x2="5.153" y2="6.600996"/>
<line fill="none" stroke="#000000" stroke-width="0.1" x1="4.639" y1="6.600996" x2="4.401" y2="6.600996"/>
<line fill="none" stroke="#000000" stroke-width="0.1" x1="3.887" y1="6.600996" x2="3.649" y2="6.600996"/>
<line fill="none" stroke="#000000" stroke-width="0.1" x1="3.135" y1="6.600996" x2="2.897" y2="6.600996"/>
<line fill="none" stroke="#000000" stroke-width="0.1" x1="2.383" y1="6.600996" x2="2.145" y2="6.600996"/>
<line fill="none" stroke="#000000" stroke-width="0.1" x1="2.145" y1="6.086997" x2="2.145" y2="5.848997"/>
<line fill="none" stroke="#000000" stroke-width="0.1" x1="2.145" y1="5.334997" x2="2.145" y2="5.096997"/>
<line fill="none" stroke="#000000" stroke-width="0.1" x1="2.145" y1="4.582997" x2="2.145" y2="4.344996"/>
<line fill="none" stroke="#000000" stroke-width="0.1" x1="2.145" y1="3.830997" x2="2.145" y2="3.592997"/>
<line fill="none" stroke="#000000" stroke-width="0.1" x1="2.659" y1="3.592997" x2="2.897" y2="3.592997"/>
<line fill="none" stroke="#000000" stroke-width="0.1" x1="3.411" y1="3.592997" x2="3.649" y2="3.592997"/>
<line fill="none" stroke="#000000" stroke-width="0.1" x1="4.163" y1="3.592997" x2="4.401" y2="3.592997"/>
<line fill="none" stroke="#000000" stroke-width="0.1" x1="4.915" y1="3.592997" x2="5.153" y2="3.592997"/>
<line fill="none" stroke="#000000" stroke-width="0.1" x1="5.153" y1="4.106997" x2="5.153" y2="4.344996"/>
<line fill="none" stroke="#000000" stroke-width="0.1" x1="5.153" y1="4.858997" x2="5.153" y2="5.096997"/>
<line fill="none" stroke="#000000" stroke-width="0.1" x1="5.153" y1="5.610997" x2="5.153" y2="5.848997"/>
<line fill="none" stroke="#000000" stroke-width="0.1" x1="4.639" y1="5.848997" x2="4.401" y2="5.848997"/>
<line fill="none" stroke="#000000" stroke-width="0.1" x1="3.887" y1="5.848997" x2="3.649" y2="5.848997"/>
<line fill="none" stroke="#000000" stroke-width="0.1" x1="3.135" y1="5.848997" x2="2.897" y2="5.848997"/>
<line fill="none" stroke="#000000" stroke-width="0.1" x1="2.897" y1="5.334997" x2="2.897" y2="5.096997"/>
<line fill="none" stroke="#000000" stroke-width="0.1" x1="2.897" y1="4.582997" x2="2.897" y2="4.344996"/>
<line fill="none" stroke="#000000" stroke-width="0.1" x1="3.358841" y1="4.344996" x2="3.596841" y2="4.344996"/>
<line fill="none" stroke="#000000" stroke-width="0.1" x1="4.110841" y1="4.344996" x2="4.348841" y2="4.344996"/>
<line fill="none" stroke="#000000" stroke-width="0.1" x1="4.349386" y1="4.865469" x2="4.349386" y2="5.103468"/>
<line fill="none" stroke="#000000" stroke-width="0.1" x1="3.887" y1="5.103468" x2="3.649" y2="5.103468"/>
<line fill="none" stroke="#FF0000" stroke-width="0.1" x1="1.907" y1="2.840997" x2="2.145" y2="2.840997"/>
<line fill="none" stroke="#FF0000" stroke-width="0.1" x1="2.659" y1="2.840997" x2="2.897" y2="2.840997"/>
<line fill="none" stroke="#FF0000" stroke-width="0.1" x1="3.411" y1="2.840997" x2="3.649" y2="2.840997"/>
<line fill="none" stroke="#FF0000" stroke-width="0.1" x1="4.163" y1="2.840997" x2="4.401" y2="2.840997"/>
<line fill="none" stroke="#FF0000" stroke-width="0.1" x1="4.915" y1="2.840997" x2="5.153" y2="2.840997"/>
<line fill="none" stroke="#FF0000" stroke-width="0.1" x1="5.667" y1="2.840997" x2="5.905" y2="2.840997"/>
<line fill="none" stroke="#FF0000" stroke-width="0.1" x1="5.905" y1="3.354997" x2="5.905" y2="3.592997"/>
<line fill="none" stroke="#FF0000" stroke-width="0.1" x1="5.905" y1="4.106997" x2="5.905" y2="4.344996"/>
<line fill="none" stroke="#FF0000" stroke-width="0.1" x1="5.905" y1="4.858997" x2="5.905" y2="5.096997"/>
<line fill="none" stroke="#FF0000" stroke-width="0.1" x1="5.905" y1="5.610997" x2="5.905" y2="5.848997"/>
<line fill="none" stroke="#FF0000" stroke-width="0.1" x1="5.905" y1="6.362997" x2="5.905" y2="6.600996"/>
<line fill="none" stroke="#FF0000" stroke-width="0.1" x1="5.391" y1="6.600996" x2="5.153" y2="6.600996"/>
<line fill="none" stroke="#FF0000" stroke-width="0.1" x1="4.639" y1="6.600996" x2="4.401" y2="6.600996"/>
<line fill="none" stroke="#FF0000" stroke-width="0.1" x1="3.887" y1="6.600996" x2="3.649" y2="6.600996"/>
<line fill="none" stroke="#FF0000" stroke-width="0.1" x1="3.135" y1="6.600996" x2="2.897" y2="6.600996"/>
<line fill="none" stroke="#FF0000" stroke-width="0.1" x1="2.383" y1="6.600996" x2="2.145" y2="6.600996"/>
<line fill="none" stroke="#FF0000" stroke-width="0.1" x1="2.145" y1="6.086997" x2="2.145" y2="5.848997"/>
<line fill="none" stroke="#FF0000" stroke-width="0.1" x1="2.145" y1="5.334997" x2="2.145" y2="5.096997"/>
<line fill="none" stroke="#FF0000" stroke-width="0.1" x1="2.145" y1="4.582997" x2="2.145" y2="4.344996"/>
<line fill="none" stroke="#FF0000" stroke-width="0.1" x1="2.145" y1="3.830997" x2="2.145" y2="3.592997"/>
<line fill="none" stroke="#FF0000" stroke-width="0.1" x1="2.659" y1="3.592997" x2="2.897" y2="3.592997"/>
<line fill="none" stroke="#FF0000" stroke-width="0.1" x1="3.411" y1="3.592997" x2="3.649" y2="3.592997"/>
<line fill="none" stroke="#FF0000" stroke-width="0.1" x1="4.163" y1="3.592997" x2="4.401" y2="3.592997"/>
<line fill="none" stroke="#FF0000" stroke-width="0.1" x1="4.915" y1="3.592997" x2="5.153" y2="3.592997"/>
<line fill="none" stroke="#FF0000" stroke-width="0.1" x1="5.153" y1="4.106997" x2="5.153" y2="4.344996"/>
<line fill="none" stroke="#FF0000" stroke-width="0.1" x1="5.153" y1="4.858997" x2="5.153" y2="5.096997"/>
<line fill="none" stroke="#FF0000" stroke-width="0.1" x1="5.153" y1="5.610997" x2="5.153" y2="5.848997"/>
<line fill="none" stroke="#FF0000" stroke-width="0.1" x1="4.639" y1="5.848997" x2="4.401" y2="5.848997"/>
<line fill="none" stroke="#FF0000" stroke-width="0.1" x1="3.887" y1="5.848997" x2="3.649" y2="5.848997"/>
<line fill="none" stroke="#FF0000" stroke-width="0.1" x1="3.135" y1="5.848997" x2="2.897" y2="5.848997"/>
<line fill="none" stroke="#FF0000" stroke-width="0.1" x1="2.897" y1="5.334997" x2="2.897" y2="5.096997"/>
<line fill="none" stroke="#FF0000" stroke-width="0.1" x1="2.897" y1="4.582997" x2="2.897" y2="4.344996"/>
<line fill="none" stroke="#FF0000" stroke-width="0.1" x1="3.358841" y1="4.344996" x2="3.596841" y2="4.344996"/>
<line fill="none" stroke="#FF0000" stroke-width="0.1" x1="4.110841" y1="4.344996" x2="4.348841" y2="4.344996"/>
<line fill="none" stroke="#FF0000" stroke-width="0.1" x1="4.349386" y1="4.865469" x2="4.349386" y2="5.103468"/>
<line fill="none" stroke="#FF0000" stroke-width="0.1" x1="3.887" y1="5.103468" x2="3.649" y2="5.103468"/>
<line fill="none" stroke="#0000FF" stroke-width="0.1" x1="2.659" y1="3.592997" x2="2.897" y2="3.592997"/>
<line fill="none" stroke="#0000FF" stroke-width="0.1" x1="3.411" y1="3.592997" x2="3.649" y2="3.592997"/>
<line fill="none" stroke="#0000FF" stroke-width="0.1" x1="4.163" y1="3.592997" x2="4.401" y2="3.592997"/>
<line fill="none" stroke="#0000FF" stroke-width="0.1" x1="4.915" y1="3.592997" x2="5.153" y2="3.592997"/>
<line fill="none" stroke="#0000FF" stroke-width="0.1" x1="5.153" y1="4.106997" x2="5.153" y2="4.344996"/>
<line fill="none" stroke="#0000FF" stroke-width="0.1" x1="5.153" y1="4.858997" x2="5.153" y2="5.096997"/>
<line fill="none" stroke="#0000FF" stroke-width="0.1" x1="5.153" y1="5.610997" x2="5.153" y2="5.848997"/>
<line fill="none" stroke="#0000FF" stroke-width="0.1" x1="4.639" y1="5.848997" x2="4.401" y2="5.848997"/>
<line fill="none" stroke="#0000FF" stroke-width="0.1" x1="3.887" y1="5.848997" x2="3.649" y2="5.848997"/>
<line fill="none" stroke="#0000FF" stroke-width="0.1" x1="3.135" y1="5.848997" x2="2.897" y2="5.848997"/>
<line fill="none" stroke="#0000FF" stroke-width="0.1" x1="2.897" y1="5.334997" x2="2.897" y2="5.096997"/>
<line fill="none" stroke="#0000FF" stroke-width="0.1" x1="2.897" y1="4.582997" x2="2.897" y2="4.344996"/>
<line fill="none" stroke="#0000FF" stroke-width="0.1" x1="3.358841" y1="4.344996" x2="3.596841" y2="4.344996"/>
<line fill="none" stroke="#0000FF" stroke-width="0.1" x1="4.110841" y1="4.344996" x2="4.348841" y2="4.344996"/>
<line fill="none" stroke="#0000FF" stroke-width="0.1" x1="4.349386" y1="4.865469" x2="4.349386" y2="5.103468"/>
<line fill="none" stroke="#0000FF" stroke-width="0.1" x1="3.887" y1="5.103468" x2="3.649" y2="5.103468"/>
<line fill="none" stroke="#0000FF" stroke-width="0.1" x1="2.659" y1="3.592997" x2="2.897" y2="3.592997"/>
<line fill="none" stroke="#0000FF" stroke-width="0.1" x1="3.411" y1="3.592997" x2="3.649" y2="3.592997"/>
<line fill="none" stroke="#0000FF" stroke-width="0.1" x1="4.163" y1="3.592997" x2="4.401" y2="3.592997"/>
<line fill="none" stroke="#0000FF" stroke-width="0.1" x1="4.915" y1="3.592997" x2="5.153" y2="3.592997"/>
<line fill="none" stroke="#0000FF" stroke-width="0.1" x1="5.153" y1="4.106997" x2="5.153" y2="4.344996"/>
<line fill="none" stroke="#0000FF" stroke-width="0.1" x1="5.153" y1="4.858997" x2="5.153" y2="5.096997"/>
<line fill="none" stroke="#0000FF" stroke-width="0.1" x1="5.153" y1="5.610997" x2="5.153" y2="5.848997"/>
<line fill="none" stroke="#0000FF" stroke-width="0.1" x1="4.639" y1="5.848997" x2="4.401" y2="5.848997"/>
<line fill="none" stroke="#0000FF" stroke-width="0.1" x1="3.887" y1="5.848997" x2="3.649" y2="5.848997"/>
<line fill="none" stroke="#0000FF" stroke-width="0.1" x1="3.135" y1="5.848997" x2="2.897" y2="5.848997"/>
<line fill="none" stroke="#0000FF" stroke-width="0.1" x1="2.897" y1="5.334997" x2="2.897" y2="5.096997"/>
<line fill="none" stroke="#0000FF" stroke-width="0.1" x1="2.897" y1="4.582997" x2="2.897" y2="4.344996"/>
<line fill="none" stroke="#0000FF" stroke-width="0.1" x1="3.358841" y1="4.344996" x2="3.596841" y2="4.344996"/>
<line fill="none" stroke="#0000FF" stroke-width="0.1" x1="4.110841" y1="4.344996" x2="4.348841" y2="4.344996"/>
<line fill="none" stroke="#0000FF" stroke-width="0.1" x1="4.349386" y1="4.865469" x2="4.349386" y2="5.103468"/>
<line fill="none" stroke="#0000FF" stroke-width="0.1" x1="3.887" y1="5.103468" x2="3.649" y2="5.103468"/>
<line fill="none" stroke="#00FF00" stroke-width="0.1" x1="3.356013" y1="4.344996" x2="3.594013" y2="4.344996"/>
<line fill="none" stroke="#00FF00" stroke-width="0.1" x1="4.108013" y1="4.344996" x2="4.346013" y2="4.344996"/>
<line fill="none" stroke="#00FF00" stroke-width="0.1" x1="4.346558" y1="4.865469" x2="4.346558" y2="5.103468"/>
<line fill="none" stroke="#00FF00" stroke-width="0.1" x1="3.884172" y1="5.103468" x2="3.646172" y2="5.103468"/>
<line fill="none" stroke="#00FF00" stroke-width="0.1" x1="3.356013" y1="4.344996" x2="3.594013" y2="4.344996"/>
<line fill="none" stroke="#00FF00" stroke-width="0.1" x1="4.108013" y1="4.344996" x2="4.346013" y2="4.344996"/>
<line fill="none" stroke="#00FF00" stroke-width="0.1" x1="4.346558" y1="4.865469" x2="4.346558" y2="5.103468"/>
<line fill="none" stroke="#00FF00" stroke-width="0.1" x1="3.884172" y1="5.103468" x2="3.646172" y2="5.103468"/>
<line fill="none" stroke="#00FF00" stroke-width="0.1" x1="3.356013" y1="4.344996" x2="3.594013" y2="4.344996"/>
<line fill="none" stroke="#00FF00" stroke-width="0.1" x1="4.108013" y1="4.344996" x2="4.346013" y2="4.344996"/>
<line fill="none" stroke="#00FF00" stroke-width="0.1" x1="4.346558" y1="4.865469" x2="4.346558" y2="5.103468"/>
<line fill="none" stroke="#00FF00" stroke-width="0.1" x1="3.884172" y1="5.103468" x2="3.646172" y2="5.103468"/>
<line fill="none" stroke="#00FF00" stroke-width="0.1" x1="3.356013" y1="4.344996" x2="3.594013" y2="4.344996"/>
<line fill="none" stroke="#00FF00" stroke-width="0.1" x1="4.108013" y1="4.344996" x2="4.346013" y2="4.344996"/>
<line fill="none" stroke="#00FF00" stroke-width="0.1" x1="4.346558" y1="4.865469" x2="4.346558" y2="5.103468"/>
<line fill="none" stroke="#00FF00" stroke-width="0.1" x1="3.884172" y1="5.103468" x2="3.646172" y2="5.103468"/>
</svg>
