<?xml version="1.0" encoding="utf-8"?>
<!-- Generator: Adobe Illustrator 16.0.0, SVG Export Plug-In . SVG Version: 6.00 Build 0)  -->
<!DOCTYPE svg PUBLIC "-//W3C//DTD SVG 1.1//EN" "http://www.w3.org/Graphics/SVG/1.1/DTD/svg11.dtd">
<svg  version="1.1" id="Ebene_1" xmlns="&ns_svg;" xmlns:xlink="&ns_xlink;" width="15" height="15"
	 	viewBox="0 0 15 15" enable-background="new 0 0 15 15" xml:space="preserve">

<line fill="none" stroke="#000000" stroke-width="0.1" x1="1.155" y1="2.089" x2="1.393" y2="2.089"/>
<line fill="none" stroke="#000000" stroke-width="0.1" x1="1.907" y1="2.089" x2="2.145" y2="2.089"/>
<line fill="none" stroke="#000000" stroke-width="0.1" x1="2.659" y1="2.089" x2="2.897" y2="2.089"/>
<line fill="none" stroke="#000000" stroke-width="0.1" x1="3.411" y1="2.089" x2="3.649" y2="2.089"/>
<line fill="none" stroke="#000000" stroke-width="0.1" x1="4.163" y1="2.089" x2="4.401" y2="2.089"/>
<line fill="none" stroke="#000000" stroke-width="0.1" x1="4.915" y1="2.089" x2="5.153" y2="2.089"/>
<line fill="none" stroke="#000000" stroke-width="0.1" x1="5.667" y1="2.089" x2="5.905" y2="2.089"/>
<line fill="none" stroke="#000000" stroke-width="0.1" x1="6.419" y1="2.089" x2="6.657" y2="2.089"/>
<line fill="none" stroke="#000000" stroke-width="0.1" x1="6.657" y1="2.603" x2="6.657" y2="2.841"/>
<line fill="none" stroke="#000000" stroke-width="0.1" x1="6.657" y1="3.355" x2="6.657" y2="3.593"/>
<line fill="none" stroke="#000000" stroke-width="0.1" x1="6.657" y1="4.107" x2="6.657" y2="4.345"/>
<line fill="none" stroke="#000000" stroke-width="0.1" x1="6.657" y1="4.859" x2="6.657" y2="5.097"/>
<line fill="none" stroke="#000000" stroke-width="0.1" x1="6.657" y1="5.611" x2="6.657" y2="5.849"/>
<line fill="none" stroke="#000000" stroke-width="0.1" x1="6.657" y1="6.363" x2="6.657" y2="6.601"/>
<line fill="none" stroke="#000000" stroke-width="0.1" x1="6.657" y1="7.115" x2="6.657" y2="7.353"/>
<line fill="none" stroke="#000000" stroke-width="0.1" x1="6.143" y1="7.353" x2="5.905" y2="7.353"/>
<line fill="none" stroke="#000000" stroke-width="0.1" x1="5.391" y1="7.353" x2="5.153" y2="7.353"/>
<line fill="none" stroke="#000000" stroke-width="0.1" x1="4.639" y1="7.353" x2="4.401" y2="7.353"/>
<line fill="none" stroke="#000000" stroke-width="0.1" x1="3.887" y1="7.353" x2="3.649" y2="7.353"/>
<line fill="none" stroke="#000000" stroke-width="0.1" x1="3.135" y1="7.353" x2="2.897" y2="7.353"/>
<line fill="none" stroke="#000000" stroke-width="0.1" x1="2.383" y1="7.353" x2="2.145" y2="7.353"/>
<line fill="none" stroke="#000000" stroke-width="0.1" x1="1.631" y1="7.353" x2="1.393" y2="7.353"/>
<line fill="none" stroke="#000000" stroke-width="0.1" x1="1.393" y1="6.839" x2="1.393" y2="6.601"/>
<line fill="none" stroke="#000000" stroke-width="0.1" x1="1.393" y1="6.087" x2="1.393" y2="5.849"/>
<line fill="none" stroke="#000000" stroke-width="0.1" x1="1.393" y1="5.335" x2="1.393" y2="5.097"/>
<line fill="none" stroke="#000000" stroke-width="0.1" x1="1.393" y1="4.583" x2="1.393" y2="4.345"/>
<line fill="none" stroke="#000000" stroke-width="0.1" x1="1.393" y1="3.831" x2="1.393" y2="3.593"/>
<line fill="none" stroke="#000000" stroke-width="0.1" x1="1.393" y1="3.079" x2="1.393" y2="2.841"/>
<line fill="none" stroke="#000000" stroke-width="0.1" x1="1.907" y1="2.841" x2="2.145" y2="2.841"/>
<line fill="none" stroke="#000000" stroke-width="0.1" x1="2.659" y1="2.841" x2="2.897" y2="2.841"/>
<line fill="none" stroke="#000000" stroke-width="0.1" x1="3.411" y1="2.841" x2="3.649" y2="2.841"/>
<line fill="none" stroke="#000000" stroke-width="0.1" x1="4.163" y1="2.841" x2="4.401" y2="2.841"/>
<line fill="none" stroke="#000000" stroke-width="0.1" x1="4.915" y1="2.841" x2="5.153" y2="2.841"/>
<line fill="none" stroke="#000000" stroke-width="0.1" x1="5.667" y1="2.841" x2="5.905" y2="2.841"/>
<line fill="none" stroke="#000000" stroke-width="0.1" x1="5.905" y1="3.355" x2="5.905" y2="3.593"/>
<line fill="none" stroke="#000000" stroke-width="0.1" x1="5.905" y1="4.107" x2="5.905" y2="4.345"/>
<line fill="none" stroke="#000000" stroke-width="0.1" x1="5.905" y1="4.859" x2="5.905" y2="5.097"/>
<line fill="none" stroke="#000000" stroke-width="0.1" x1="5.905" y1="5.611" x2="5.905" y2="5.849"/>
<line fill="none" stroke="#000000" stroke-width="0.1" x1="5.905" y1="6.363" x2="5.905" y2="6.601"/>
<line fill="none" stroke="#000000" stroke-width="0.1" x1="5.391" y1="6.601" x2="5.153" y2="6.601"/>
<line fill="none" stroke="#000000" stroke-width="0.1" x1="4.639" y1="6.601" x2="4.401" y2="6.601"/>
<line fill="none" stroke="#000000" stroke-width="0.1" x1="3.887" y1="6.601" x2="3.649" y2="6.601"/>
<line fill="none" stroke="#000000" stroke-width="0.1" x1="3.135" y1="6.601" x2="2.897" y2="6.601"/>
<line fill="none" stroke="#000000" stroke-width="0.1" x1="2.383" y1="6.601" x2="2.145" y2="6.601"/>
<line fill="none" stroke="#000000" stroke-width="0.1" x1="2.145" y1="6.087" x2="2.145" y2="5.849"/>
<line fill="none" stroke="#000000" stroke-width="0.1" x1="2.145" y1="5.335" x2="2.145" y2="5.097"/>
<line fill="none" stroke="#000000" stroke-width="0.1" x1="2.145" y1="4.583" x2="2.145" y2="4.345"/>
<line fill="none" stroke="#000000" stroke-width="0.1" x1="2.145" y1="3.831" x2="2.145" y2="3.593"/>
<line fill="none" stroke="#000000" stroke-width="0.1" x1="2.659" y1="3.593" x2="2.897" y2="3.593"/>
<line fill="none" stroke="#000000" stroke-width="0.1" x1="3.411" y1="3.593" x2="3.649" y2="3.593"/>
<line fill="none" stroke="#000000" stroke-width="0.1" x1="4.163" y1="3.593" x2="4.401" y2="3.593"/>
<line fill="none" stroke="#000000" stroke-width="0.1" x1="4.915" y1="3.593" x2="5.153" y2="3.593"/>
<line fill="none" stroke="#000000" stroke-width="0.1" x1="5.153" y1="4.107" x2="5.153" y2="4.345"/>
<line fill="none" stroke="#000000" stroke-width="0.1" x1="5.153" y1="4.859" x2="5.153" y2="5.097"/>
<line fill="none" stroke="#000000" stroke-width="0.1" x1="5.153" y1="5.611" x2="5.153" y2="5.849"/>
<line fill="none" stroke="#000000" stroke-width="0.1" x1="4.639" y1="5.849" x2="4.401" y2="5.849"/>
<line fill="none" stroke="#000000" stroke-width="0.1" x1="3.887" y1="5.849" x2="3.649" y2="5.849"/>
<line fill="none" stroke="#000000" stroke-width="0.1" x1="3.135" y1="5.849" x2="2.897" y2="5.849"/>
<line fill="none" stroke="#000000" stroke-width="0.1" x1="2.897" y1="5.335" x2="2.897" y2="5.097"/>
<line fill="none" stroke="#000000" stroke-width="0.1" x1="2.897" y1="4.583" x2="2.897" y2="4.345"/>
</svg>
